<svg version="1.1" id="Layer_1" xmlns="http://www.w3.org/2000/svg" xmlns:xlink="http://www.w3.org/1999/xlink" x="0px" y="0px"
	 width="100%" viewBox="0 0 464 464" enable-background="new 0 0 464 464" xml:space="preserve">
<path fill="#000000" opacity="1.000000" stroke="none" 
	d="
M465.000000,209.000000 
	C465.000000,224.020889 465.000000,239.041794 464.913208,254.916534 
	C463.507355,264.140991 462.627411,272.608826 460.798126,280.866394 
	C448.790192,335.070587 421.250732,379.834076 377.570831,414.100922 
	C324.575348,455.675934 264.267181,471.076935 197.826904,460.784393 
	C153.263870,453.880981 113.789322,435.111969 80.751030,404.301697 
	C19.605801,347.279999 -4.648738,276.884644 7.399829,194.263062 
	C12.203064,161.325500 24.655518,131.039795 43.479866,103.587181 
	C79.100975,51.638947 127.709427,18.799610 189.386749,5.497959 
	C201.129990,2.965355 213.113174,2.373741 225.000000,1.000000 
	C231.021149,1.000000 237.042297,1.000000 243.919922,1.117371 
	C273.678314,2.503215 301.474060,8.702742 327.839050,20.635620 
	C389.145081,48.382885 430.764343,94.295280 453.464600,157.538757 
	C459.453064,174.222809 462.609497,191.520370 465.000000,209.000000 
M333.129303,41.433952 
	C297.409149,23.202536 259.524902,15.612492 219.533554,18.189878 
	C182.003250,20.608654 122.082756,42.721924 110.970886,58.563816 
	C120.780586,57.244366 129.502136,58.972893 135.829071,66.983345 
	C138.037048,69.778862 140.506653,71.227959 144.010620,71.993912 
	C153.539093,74.076805 161.186508,79.197876 166.050629,87.836220 
	C168.671021,92.489883 166.541855,96.042526 161.193726,96.414825 
	C159.534454,96.530327 157.861893,96.464981 156.195419,96.465363 
	C129.030121,96.471649 101.864769,96.499962 74.699570,96.448769 
	C71.199600,96.442177 68.355667,97.009293 66.029175,100.137375 
	C58.359406,110.449768 51.186214,121.056618 45.217602,132.454346 
	C31.520498,158.610474 23.716562,186.409729 21.104761,215.829865 
	C18.744013,242.422058 22.178638,268.276154 29.170609,293.851379 
	C30.253376,297.811890 31.704323,298.696686 35.399879,296.613251 
	C40.470451,293.754608 45.684254,291.084625 51.045132,288.829254 
	C54.634216,287.319305 57.131840,285.147003 59.056625,281.796783 
	C79.142677,246.835495 99.324150,211.929047 119.466354,177.000015 
	C130.369370,158.092850 141.222107,139.156631 152.153076,120.265663 
	C155.335754,114.765343 159.038559,113.069313 163.502029,114.756500 
	C166.536316,115.903465 168.095490,118.450325 169.609207,121.079712 
	C194.131104,163.675400 218.658447,206.267929 243.217361,248.842255 
	C244.259064,250.648102 244.871567,252.887482 247.360062,253.846420 
	C249.491821,252.156433 250.569336,249.692047 251.882416,247.427383 
	C264.000610,226.527283 276.052917,205.588852 288.217773,184.715988 
	C293.958466,174.865860 300.600555,175.067444 306.306183,184.987000 
	C325.494110,218.346283 344.768585,251.655838 363.913513,285.039703 
	C365.766998,288.271729 367.937500,289.757721 371.809235,289.816925 
	C392.189789,290.128448 411.718384,294.780304 430.667999,302.068115 
	C437.220673,304.588196 437.282471,304.668793 439.431427,297.785095 
	C452.547821,255.769974 452.907410,213.639313 440.769073,171.321579 
	C439.395355,166.532486 437.024292,165.190155 432.262848,165.210724 
	C394.932190,165.371964 357.600433,165.283875 320.269043,165.289810 
	C317.188721,165.290314 314.131653,165.232529 312.459351,162.046478 
	C310.717194,158.727341 312.828491,156.224457 314.666656,153.919434 
	C322.221344,144.445892 331.866882,138.858658 344.222137,138.592422 
	C346.595428,138.541290 348.939514,138.647644 350.071991,135.875519 
	C355.737396,122.007431 372.899689,116.048958 386.185577,119.818596 
	C389.111694,120.648827 390.489166,119.821297 391.096405,116.842354 
	C392.248291,111.191765 394.543121,105.922203 398.673737,101.887482 
	C401.898560,98.737549 401.179688,96.638344 398.586182,93.560486 
	C380.407074,71.986122 358.716614,54.869289 333.129303,41.433952 
M98.617050,326.889587 
	C135.503769,321.294983 168.616043,330.034973 198.156799,352.809814 
	C206.594757,359.315155 215.225525,365.615051 224.117416,371.479095 
	C258.948059,394.449432 297.149658,408.234375 338.685791,412.472626 
	C344.606293,413.076721 350.516754,414.346100 356.335052,410.088196 
	C369.564056,400.406982 382.056671,389.992462 393.082092,377.853760 
	C393.695099,377.178802 394.611633,376.510162 394.289978,375.317352 
	C393.943542,375.273102 393.602570,375.138519 393.308838,375.206909 
	C391.527191,375.621613 389.738617,376.022125 387.984467,376.536896 
	C352.233521,387.027161 317.489929,383.250427 283.582397,368.934052 
	C262.358795,359.973022 243.502762,347.101562 226.154846,332.144623 
	C192.479752,303.110718 154.580688,286.292389 109.190567,290.124176 
	C84.520805,292.206787 61.688023,299.903687 40.492123,312.646240 
	C37.544193,314.418488 37.324265,316.371399 38.627815,319.282379 
	C41.899818,326.589294 45.660259,333.627014 49.537666,340.623901 
	C51.356583,343.906219 53.088745,344.169067 56.254749,342.328644 
	C69.176460,334.817322 83.015350,329.664734 98.617050,326.889587 
M115.625053,374.781982 
	C121.790894,374.691406 127.923378,375.023712 134.078583,375.547394 
	C165.305832,378.204163 193.851501,388.293640 219.626755,406.091705 
	C234.362045,416.266571 247.187149,428.668152 259.641785,441.435547 
	C262.419952,444.283508 264.836243,445.722870 269.136841,444.853394 
	C281.548767,442.344025 293.979126,439.946991 305.872711,435.523895 
	C314.843414,432.187775 323.964417,429.091034 332.418457,423.888397 
	C330.858185,421.987610 329.056213,422.261017 327.508392,422.033234 
	C310.655670,419.552856 294.259430,415.234894 278.141968,409.808441 
	C246.322250,399.095276 218.209991,381.722290 191.930283,361.229645 
	C172.727676,346.255646 151.341248,337.232605 126.952751,335.670929 
	C103.676292,334.180511 82.014183,339.441895 61.846931,351.155975 
	C58.458477,353.124176 58.399326,354.921783 60.620804,357.822266 
	C65.484238,364.172241 70.347542,370.507172 75.689507,376.474609 
	C77.909180,378.954193 80.056870,379.887146 83.540985,379.010559 
	C93.732735,376.446350 104.200890,375.570374 115.625053,374.781982 
M225.322372,251.109604 
	C219.566254,241.158340 213.701614,231.267471 208.111801,221.223663 
	C206.104523,217.616989 204.201889,217.368454 201.139374,219.893646 
	C197.802429,222.645157 194.237488,225.128601 190.698059,227.624100 
	C185.406631,231.354874 182.929062,231.326874 177.599030,227.496094 
	C173.134064,224.287064 168.638947,221.106232 164.346313,217.676208 
	C161.683563,215.548553 159.449478,215.498611 156.785751,217.588318 
	C152.199524,221.186279 147.450211,224.575638 142.794495,228.085922 
	C138.980743,230.961395 135.172333,231.062271 131.301544,228.226288 
	C127.672600,225.567505 123.863640,223.122330 120.445724,220.216400 
	C116.818306,217.132339 114.787666,217.693893 112.465309,221.855743 
	C103.537094,237.855759 94.280640,253.672318 85.214684,269.596069 
	C83.937172,271.839935 82.131165,273.940643 82.200394,277.014709 
	C84.826691,277.787842 87.199738,276.691803 89.556587,276.236969 
	C99.550476,274.308380 109.649513,272.933746 119.789375,272.897858 
	C147.815674,272.798676 174.185654,279.745026 198.784836,293.101471 
	C202.940659,295.357941 205.992798,295.660919 210.125198,292.994629 
	C218.155289,287.813507 227.118622,284.592316 236.536621,282.792694 
	C242.131897,281.723541 242.451340,281.212036 239.563797,276.052704 
	C235.007034,267.910858 230.331436,259.835541 225.322372,251.109604 
M346.459259,344.784729 
	C368.212341,341.197357 389.929382,341.442444 411.530121,345.820221 
	C415.288055,346.581879 417.391449,345.719330 419.330688,342.550751 
	C422.817444,336.853638 425.825012,330.920563 428.882843,324.998749 
	C430.652893,321.570831 429.994934,319.676270 426.325012,318.108887 
	C409.579346,310.956635 392.136932,306.928253 373.969666,306.348053 
	C335.608154,305.122925 301.754791,318.040924 270.767822,339.720581 
	C269.956116,340.288483 269.059143,340.831940 269.140778,342.204987 
	C269.766510,344.026367 271.675201,344.592957 273.194733,345.464264 
	C281.155151,350.028656 289.393219,354.007263 297.999878,357.247070 
	C301.017120,358.382874 303.566010,358.315247 306.570221,357.025696 
	C319.143280,351.628876 332.007019,347.066681 346.459259,344.784729 
M303.393585,213.063766 
	C301.421387,210.096817 300.510986,206.366882 297.433380,204.283859 
	C295.541931,204.867020 294.955292,206.312302 294.217041,207.586243 
	C282.775665,227.329941 271.300018,247.054016 259.938507,266.843628 
	C255.921402,273.840607 259.395905,282.197449 267.321381,284.264008 
	C279.713379,287.495300 291.145691,292.764313 301.781952,299.783905 
	C304.445557,301.541779 306.803772,301.690674 309.722076,300.597137 
	C320.503113,296.557251 331.638092,293.763428 342.940308,291.611786 
	C344.375092,291.338684 345.960541,291.262939 347.232422,288.774414 
	C332.913849,264.055725 318.330841,238.880554 303.393585,213.063766 
M115.605675,410.874481 
	C153.444473,436.022339 194.998383,448.096619 240.399521,446.810608 
	C217.386047,420.707428 189.354156,403.113464 155.596375,395.410431 
	C135.678818,390.865540 115.516823,389.526062 93.816971,393.930969 
	C101.366943,400.548035 108.099678,405.620972 115.605675,410.874481 
M163.848038,144.706070 
	C162.784943,143.286575 162.455872,141.296921 160.662659,140.464294 
	C159.006256,140.764893 158.655411,142.194687 158.019440,143.292908 
	C148.521072,159.694962 138.993988,176.080795 129.588959,192.536346 
	C123.706245,202.829025 123.839256,202.811264 133.778366,209.681366 
	C136.072220,211.266891 137.793610,211.348129 139.995544,209.647079 
	C144.600021,206.089996 149.335159,202.700287 154.052872,199.292007 
	C159.400116,195.428970 161.821274,195.408920 167.069412,199.134781 
	C170.187210,201.348221 173.258743,203.626724 176.361038,205.862152 
	C185.193130,212.226334 182.479965,213.034088 192.633743,205.740997 
	C196.361557,203.063416 196.307999,200.830322 194.138885,197.146133 
	C184.016418,179.953400 174.156937,162.605850 163.848038,144.706070 
M410.176147,108.811646 
	C407.993500,106.980309 406.848297,108.848610 405.696808,110.174866 
	C401.571472,114.926338 400.925110,120.591667 401.408936,126.598000 
	C401.981964,133.711807 398.828094,136.020050 392.542908,132.965012 
	C386.940338,130.241791 381.099731,129.515060 375.028351,130.148727 
	C365.521271,131.140945 361.522552,134.583786 358.897064,143.834229 
	C357.259583,149.603592 355.823303,150.514984 349.962128,149.626892 
	C343.092743,148.586060 336.504059,148.883972 330.708130,153.528641 
	C331.766785,155.058517 333.057892,154.611984 334.135529,154.613190 
	C365.623199,154.648331 397.110962,154.666473 428.598602,154.624374 
	C433.627045,154.617661 434.347229,153.575668 432.523804,148.978317 
	C426.907898,134.819061 419.460632,121.655739 410.176147,108.811646 
M240.394470,298.929077 
	C233.520859,299.964417 226.951172,301.771851 220.490479,306.164703 
	C230.950256,315.228607 240.961456,323.426880 251.397980,331.111969 
	C253.398712,332.585236 254.760086,331.282043 256.229523,330.127258 
	C264.231720,323.838959 272.829681,318.459473 281.654541,313.415283 
	C283.155640,312.557251 285.111908,312.066254 285.667053,310.038849 
	C277.034180,302.235260 256.094574,296.945526 240.394470,298.929077 
M97.664307,68.196175 
	C91.030640,72.799759 85.406723,78.436325 79.798370,84.631882 
	C84.968109,86.346573 143.143326,86.301735 147.143417,84.791908 
	C144.434067,82.192795 141.072556,82.172768 137.785141,82.325470 
	C133.996231,82.501480 131.677887,80.940926 129.846954,77.609512 
	C125.291161,69.320160 118.374741,66.658890 109.647835,70.467857 
	C104.858330,72.558304 101.483444,71.954605 97.664307,68.196175 
M389.708496,359.128326 
	C392.854919,357.925842 396.253082,357.241364 399.424072,354.876007 
	C377.125885,349.889832 333.698425,355.249054 321.489044,363.779724 
	C344.704620,367.455963 367.039520,366.743347 389.708496,359.128326 
z"/>
<path fill="#000000" opacity="1.000000" stroke="none" 
	d="
M217.415237,128.550583 
	C226.134720,115.498016 238.240448,109.798355 253.207703,111.939957 
	C266.694885,113.869774 276.396454,121.703888 281.314453,134.663071 
	C288.819000,154.438004 278.039032,175.917969 257.746033,181.985199 
	C238.305771,187.797470 217.656570,175.463272 212.828186,155.280487 
	C210.560608,145.801910 212.600311,137.143738 217.415237,128.550583 
M266.472778,142.394379 
	C266.083252,141.300705 265.781616,140.165756 265.290436,139.119843 
	C261.016174,130.018875 250.443085,125.970238 240.839218,129.725327 
	C231.610199,133.333832 226.900330,143.896866 230.172729,153.647568 
	C233.409027,163.290817 243.437637,168.543137 253.247803,165.732758 
	C262.993408,162.940872 267.634674,155.136734 266.472778,142.394379 
z"/>
</svg>