<svg version="1.1" id="Layer_1" xmlns="http://www.w3.org/2000/svg" xmlns:xlink="http://www.w3.org/1999/xlink" x="0px" y="0px"
	 width="100%" viewBox="0 0 912 720" enable-background="new 0 0 912 720" xml:space="preserve">
<path fill="#000000" opacity="1.000000" stroke="none" 
	d="
M269.043457,399.030457 
	C261.705383,391.092896 254.685333,382.907837 248.634583,373.412476 
	C251.293854,370.993195 253.706009,368.798706 256.537415,366.222809 
	C261.519653,373.141205 266.330078,379.660675 271.930084,385.583984 
	C284.244354,398.609039 298.490662,408.437500 316.145020,412.332062 
	C339.153473,417.407684 359.527313,411.457062 376.618195,395.495270 
	C392.476257,380.684875 404.508698,362.872070 414.518616,343.695465 
	C431.891876,310.412476 444.632019,275.082672 459.899078,240.871643 
	C473.276947,210.894119 487.223511,181.070587 507.470428,154.949951 
	C525.818848,131.278564 547.816406,111.588531 574.958984,98.195663 
	C575.513367,97.922104 575.996460,97.504005 577.743896,96.317291 
	C509.835205,91.338120 447.091797,106.575394 385.185577,131.470810 
	C390.861359,138.884460 396.156708,145.694931 400.122070,153.350952 
	C416.900940,185.746002 419.352356,218.840302 403.898102,252.328033 
	C397.077179,267.108185 386.791504,278.927979 370.386871,283.897552 
	C364.009918,285.829315 357.549255,285.811218 351.100708,284.559204 
	C324.115814,279.319977 302.616943,257.049500 296.661957,228.290833 
	C296.165283,225.892303 295.637512,223.500214 294.996582,220.509613 
	C285.175079,223.902695 276.897858,229.045853 269.479431,235.476242 
	C252.116638,250.526489 242.231842,269.659760 239.328278,292.407043 
	C238.980118,295.134583 238.809570,297.508392 234.997406,296.556976 
	C231.752686,295.747162 226.831253,297.974457 227.503067,291.164764 
	C229.704758,268.847992 237.611206,248.874008 251.350967,231.192749 
	C261.887848,217.633209 275.039856,207.399902 290.817383,200.619797 
	C293.517975,199.459259 295.149841,197.904068 295.605316,194.887405 
	C299.789337,167.174850 315.132965,146.555222 337.074310,130.248337 
	C342.528900,126.194481 348.305481,122.573906 354.185455,118.583557 
	C353.570129,117.866341 353.252838,117.280121 352.762329,116.956017 
	C334.178772,104.676521 314.256165,96.536957 291.490204,97.308876 
	C278.801422,97.739120 266.867126,101.065475 255.553528,106.760231 
	C249.894730,109.608612 248.348053,109.139442 245.796448,103.956078 
	C243.859100,100.020538 244.917252,97.609947 250.280319,95.194511 
	C268.954681,86.783852 288.365967,83.547859 308.737488,87.075050 
	C328.173187,90.440208 345.533051,98.582466 361.409851,110.001198 
	C364.525177,112.241783 366.885956,112.487457 370.436493,111.033302 
	C397.732727,99.853966 426.310120,93.678391 455.405975,89.394905 
	C486.620575,84.799492 517.955627,82.333755 549.497375,83.070343 
	C566.979980,83.478600 584.414307,84.843025 601.697754,87.662407 
	C606.137024,88.386566 610.589905,89.305336 614.510010,91.647774 
	C618.141541,93.817825 620.048523,96.792252 618.340576,101.268692 
	C607.868469,128.714615 600.925720,157.174530 594.333191,185.720123 
	C587.216858,216.533585 581.333618,247.594604 577.708557,279.017639 
	C574.613953,305.843018 572.612244,332.797089 575.497498,359.766205 
	C577.307617,376.685150 581.683411,392.882996 593.962524,405.743256 
	C596.749146,408.661682 596.897949,411.848785 595.214722,415.393677 
	C591.856995,422.464783 588.659546,429.612122 585.290710,436.677826 
	C582.301025,442.948120 577.921265,444.146454 572.501404,439.934082 
	C554.130249,425.655884 541.600708,407.295197 535.914856,384.739624 
	C529.213501,358.155396 528.121033,331.139801 531.497131,303.933289 
	C532.291809,297.529785 532.855957,291.097687 533.498291,284.944672 
	C532.376221,283.581970 531.157471,283.863037 530.015503,283.869598 
	C511.185364,283.977783 492.354523,284.216095 473.525696,284.105011 
	C469.413757,284.080780 467.774475,285.762299 466.332367,289.305878 
	C454.769318,317.719055 442.638367,345.929901 425.287994,371.381744 
	C412.324463,390.398346 397.111603,407.653259 375.418060,417.039001 
	C341.488617,431.718658 309.145660,428.034729 278.904907,406.639008 
	C278.229584,406.161224 277.507599,405.749420 276.242737,404.963806 
	C273.466583,402.757324 271.255035,400.893890 269.043457,399.030457 
M375.600616,137.425797 
	C374.399780,136.533600 373.403748,137.305313 372.384735,137.830246 
	C357.560272,145.466690 344.440643,155.322556 333.902161,168.303223 
	C328.248657,175.266891 323.788879,183.002716 321.365784,191.651901 
	C323.675598,193.694199 326.097198,193.522949 328.354553,193.542236 
	C346.053101,193.693314 362.432526,198.937790 378.171967,206.495499 
	C391.231049,212.766174 391.163330,212.972015 384.126953,225.525238 
	C382.117371,229.110413 379.596436,230.051300 375.876770,228.274765 
	C371.373505,226.123993 366.868683,223.946457 362.237244,222.099716 
	C349.251953,216.921951 335.798828,214.211487 321.751892,215.022919 
	C319.265167,215.166550 316.423309,214.953415 316.439636,218.678055 
	C316.509033,234.534821 318.923615,249.950394 330.748596,261.526947 
	C346.252533,276.705170 364.950989,279.166351 381.648193,261.667480 
	C394.649139,248.042282 400.296631,231.136383 401.656647,212.760712 
	C403.767395,184.241501 394.759247,159.357208 375.600616,137.425797 
M502.507782,272.001678 
	C511.997620,271.910706 521.488525,271.704468 530.976807,271.787537 
	C534.589661,271.819183 536.196289,270.690460 536.953430,266.910431 
	C546.261841,220.441132 561.016418,175.626541 578.465881,131.646866 
	C581.694519,123.509338 584.955261,115.384529 588.301025,107.003540 
	C585.515747,106.955772 583.734497,108.261665 581.826721,109.130333 
	C559.914429,119.107651 544.784424,136.381104 531.817749,155.900879 
	C510.813934,187.519592 495.241882,221.938004 480.258820,256.642792 
	C478.121246,261.593964 475.552490,266.427582 474.186523,272.176056 
	C483.653137,273.318634 492.587494,271.678833 502.507782,272.001678 
z"/>
<path fill="#000000" opacity="1.000000" stroke="none" 
	d="
M268.707581,398.912476 
	C271.255035,400.893890 273.466583,402.757324 275.927551,404.862915 
	C291.521790,423.368866 289.492157,443.675293 270.816467,458.784149 
	C269.968994,459.469849 269.155304,460.197357 267.657318,461.476044 
	C309.096436,461.476044 349.605560,461.476044 390.114716,461.476044 
	C372.073578,454.128540 354.540466,446.100342 338.934814,434.062622 
	C345.693848,433.698486 352.044830,430.560364 358.980438,434.650269 
	C391.008942,453.537354 425.871338,461.070557 462.876953,459.771545 
	C492.703705,458.724518 520.722717,451.304596 546.911438,436.957703 
	C554.446045,432.830048 555.816467,433.305206 560.751099,441.493011 
	C548.086182,450.132629 534.007446,455.830597 518.521973,461.511169 
	C560.519653,461.511169 601.248108,461.511169 642.872620,461.511169 
	C638.230530,458.046600 634.315674,454.842438 631.206238,450.766876 
	C619.445068,435.351013 621.706055,415.265503 636.740967,403.021362 
	C647.072998,394.607147 659.521484,389.946167 671.150024,383.834869 
	C677.181824,380.664917 683.232178,377.530273 690.602600,373.686920 
	C684.016235,373.302856 678.841736,372.924774 673.954407,371.049133 
	C658.022644,364.935089 650.383667,351.073792 651.188965,334.239532 
	C651.907593,319.218048 665.120178,304.943512 679.268616,303.254761 
	C690.265076,301.942230 699.754700,305.625000 706.613831,314.517975 
	C713.029541,322.836090 713.296265,332.012115 708.957031,341.393707 
	C704.122742,351.845642 692.277039,355.278839 682.963379,348.997406 
	C676.870300,344.888031 675.164612,337.874908 678.591675,331.436615 
	C680.340942,328.150421 682.961548,326.799377 686.444946,328.022522 
	C689.329590,329.035431 689.806335,331.680511 689.141296,334.262543 
	C688.236450,337.775879 685.678467,338.907593 682.200500,338.137268 
	C681.782227,338.044617 681.325745,338.124603 680.836487,338.124603 
	C682.299744,343.999634 686.449341,346.981995 692.548706,346.706177 
	C698.092163,346.455475 702.924805,341.740479 703.784668,335.743622 
	C705.238708,325.602875 697.324524,315.672363 686.638855,314.229553 
	C675.223328,312.688202 664.462585,317.898865 659.680054,327.283783 
	C653.882385,338.660645 655.805054,349.629456 665.389771,359.764160 
	C676.091736,371.080078 691.487183,372.005249 704.996155,365.272308 
	C713.920471,360.824371 722.259521,355.109406 729.008911,347.543915 
	C737.984436,337.483154 743.328857,326.283264 739.256226,312.372223 
	C739.134705,311.957001 739.332886,311.448151 739.380371,310.998840 
	C744.946899,310.838501 748.228455,314.187073 748.176086,320.445404 
	C748.117432,327.458069 745.736023,333.823364 741.790466,339.597839 
	C737.536438,345.823669 731.979614,350.867401 726.028809,356.563538 
	C731.411865,356.168274 735.918030,354.490662 740.684814,354.614990 
	C748.179382,354.810394 750.447876,356.107330 751.232666,362.022736 
	C739.484253,357.523834 730.112061,361.375061 721.759399,369.646942 
	C713.572510,377.754639 710.369263,387.732117 710.136353,399.317749 
	C703.407776,392.317627 709.021362,374.810242 720.447266,365.268677 
	C720.280701,365.086212 720.036926,364.717682 719.954956,364.750732 
	C686.576111,378.195465 678.463440,413.699921 697.125305,438.925079 
	C706.523499,451.628540 724.289124,456.496979 739.843262,450.966553 
	C755.174622,445.515320 765.472229,431.563751 764.591797,416.483704 
	C763.893555,404.524994 755.728760,391.775482 741.097107,392.188202 
	C732.164368,392.440186 723.471863,401.496674 723.811035,410.387695 
	C723.905518,412.863129 724.379150,415.384460 726.693176,416.984802 
	C728.197510,416.922729 728.392578,415.508789 729.149658,414.708527 
	C732.184387,411.500580 736.498169,410.912659 740.005920,413.251465 
	C743.528809,415.600403 744.722046,420.092590 742.817383,423.835480 
	C740.996826,427.413055 736.678284,429.009796 732.518433,427.643402 
	C717.731384,422.786377 712.984863,406.818542 722.731934,394.052795 
	C729.283447,385.472321 738.005432,381.995392 748.741333,384.296265 
	C775.453003,390.020874 785.959351,418.299500 770.314453,441.886993 
	C763.844238,451.641937 754.719788,457.467407 743.930359,461.668762 
	C748.333130,461.668762 752.735962,461.681061 757.138611,461.659454 
	C758.152039,461.654480 759.057678,461.381683 759.831726,460.593323 
	C764.879578,455.452423 766.294495,455.538727 770.289734,461.139465 
	C773.458008,455.417633 775.625549,455.280487 780.513489,460.623962 
	C781.436951,461.633392 782.511780,461.737274 783.664062,461.739594 
	C793.996765,461.760315 804.329468,461.750946 814.662170,461.759613 
	C816.424500,461.761108 817.964111,461.467377 818.705444,459.548065 
	C819.482971,457.535095 821.240295,457.146362 823.156311,456.943420 
	C832.829102,455.919006 834.143555,457.097900 834.145203,466.936462 
	C834.145264,467.269775 834.144165,467.603088 834.143799,467.936401 
	C834.134644,477.015900 830.256287,479.802979 821.279419,477.169098 
	C820.807190,477.030548 820.076111,476.905609 819.950134,476.584320 
	C817.630920,470.669098 812.546387,473.096863 808.513367,472.947205 
	C800.357849,472.644623 792.186951,472.764435 784.022522,472.691162 
	C782.714294,472.679443 781.449951,472.367249 780.380493,473.635193 
	C775.901245,478.945709 773.909119,478.804535 770.214600,472.773407 
	C768.294617,474.716644 767.621338,478.556305 763.641602,477.350067 
	C762.711548,477.068176 761.249023,477.351410 761.000366,476.344971 
	C759.881958,471.817505 756.304749,472.915924 753.350769,472.912750 
	C709.686157,472.865997 666.021545,472.872986 622.356873,472.872589 
	C514.704895,472.871643 407.052887,472.874878 299.400909,472.873444 
	C251.079742,472.872772 202.758575,472.861694 154.437408,472.876465 
	C153.037491,472.876892 151.583527,472.272675 150.368835,473.870697 
	C146.440674,479.038757 143.405151,478.790497 140.303604,473.217743 
	C137.169388,478.838318 134.795105,478.978333 130.274124,473.752380 
	C129.210724,472.523132 127.859589,472.883209 126.565903,472.873291 
	C116.235687,472.794220 105.905327,472.733673 95.575157,472.649384 
	C94.411758,472.639893 93.058655,472.329956 92.458130,473.612762 
	C89.432045,480.077087 83.841240,476.774567 79.275269,476.989166 
	C77.417717,477.076447 76.656670,475.164398 76.648590,473.327301 
	C76.631004,469.328033 76.664398,465.328552 76.653763,461.329224 
	C76.646042,458.423706 78.207703,456.897522 80.971802,457.012421 
	C85.201622,457.188263 90.198441,455.182648 92.730026,460.882507 
	C93.229454,462.007019 94.796875,461.780212 95.946754,461.780518 
	C106.112877,461.782990 116.279030,461.768005 126.445091,461.733704 
	C128.111206,461.728088 129.499329,461.576904 130.600449,459.745422 
	C133.209122,455.406403 137.134552,455.881866 140.016235,461.069153 
	C141.388168,458.969147 142.401520,456.699127 145.457840,456.838104 
	C148.240845,456.964661 149.636642,458.179291 150.648315,460.595032 
	C151.253311,462.039581 152.940094,461.630890 154.235413,461.728424 
	C154.732864,461.765869 155.234894,461.746002 155.734848,461.746155 
	C159.208694,461.747253 162.682556,461.746735 166.280792,461.389587 
	C156.585754,457.800812 147.868515,452.926025 141.735260,444.435669 
	C134.173691,433.968170 130.740158,422.495056 133.670013,409.565857 
	C137.193466,394.017120 155.413376,381.504639 171.165161,383.840942 
	C184.260895,385.783295 194.416534,399.901215 192.032425,412.849670 
	C190.762390,419.747437 182.812393,427.335602 175.777542,428.090881 
	C171.698853,428.528839 168.539185,426.780914 167.069839,422.861542 
	C165.610016,418.967560 166.610764,415.549622 170.200119,413.293121 
	C173.701508,411.091888 177.164230,411.278717 180.211914,414.311188 
	C181.125839,415.220581 181.935059,416.235138 183.002029,417.438049 
	C186.394257,413.717285 187.637085,409.983582 185.586700,405.442291 
	C182.477890,398.556702 178.103043,393.025543 170.005692,392.298553 
	C161.627380,391.546295 155.142487,395.140259 150.508652,402.088257 
	C141.902145,414.992859 144.992050,433.092621 157.541458,443.454468 
	C181.101624,462.907715 213.168777,452.352692 221.188507,422.346252 
	C228.176239,396.201141 212.506271,373.196625 190.440735,365.605347 
	C200.580948,374.775513 204.229233,385.336700 201.745102,398.252319 
	C199.070526,397.205261 199.906174,395.119812 199.707581,393.547760 
	C197.845276,378.807404 190.158615,368.299957 176.868759,361.762360 
	C171.046768,358.898438 165.202133,360.203094 159.314423,361.660980 
	C159.736450,353.864502 167.268280,352.595917 185.140350,357.484161 
	C179.487778,351.828552 174.011246,347.214691 169.678833,341.504395 
	C164.811951,335.089630 161.323120,328.241394 161.719894,319.957062 
	C161.992294,314.269745 165.276382,310.967285 170.803604,310.830383 
	C170.847931,311.435822 171.079269,312.110962 170.911255,312.664978 
	C166.870010,325.990387 171.957657,336.850281 180.351151,346.626373 
	C187.513962,354.969055 196.478378,361.432678 206.342621,365.792816 
	C226.988586,374.918671 247.596146,366.032623 253.028809,344.134949 
	C255.461227,334.330505 250.345657,323.108948 241.265839,317.598358 
	C231.920883,311.926849 220.283539,312.691101 212.370529,319.496002 
	C205.266495,325.605194 204.038864,336.330444 209.707352,342.762787 
	C215.699722,349.562653 226.187805,347.470276 229.234375,338.818024 
	C228.395142,337.446991 227.122009,338.474823 226.077744,338.333679 
	C223.091003,337.929932 221.024765,336.541748 220.724091,333.393158 
	C220.480209,330.839325 221.457169,328.682800 224.001877,327.831482 
	C226.828354,326.885925 229.223907,327.765930 230.986313,330.263611 
	C234.807312,335.678589 233.801102,343.576660 228.705521,347.935150 
	C221.095627,354.444366 210.119629,353.365753 203.822678,345.489929 
	C191.756775,330.398651 200.346039,308.291351 220.023651,303.791382 
	C240.020309,299.218506 261.249023,318.424622 258.855316,338.923309 
	C256.248688,361.245300 245.490768,371.329803 220.676178,373.750183 
	C236.552521,383.478333 253.021637,390.101074 268.707581,398.912476 
M221.590408,378.108521 
	C220.126297,377.430969 218.662201,376.753387 217.198090,376.075836 
	C225.573883,386.931305 230.252045,398.855835 229.206604,413.031433 
	C233.350067,411.914520 236.788116,410.658142 240.336319,410.091217 
	C252.502884,408.147186 262.400177,417.303223 261.280609,429.251434 
	C260.615448,436.350250 254.592560,441.600189 247.603714,441.041718 
	C244.710571,440.810547 242.479797,439.435455 241.869492,436.375671 
	C241.360062,433.821625 242.167542,431.735535 244.688599,430.623383 
	C247.494843,429.385345 249.838730,429.961548 251.750519,432.446503 
	C252.386932,433.273743 252.380524,434.870087 254.232742,434.655121 
	C257.522766,431.693085 257.210663,427.977386 256.005646,424.184631 
	C254.627594,419.847107 251.633713,417.169800 247.132980,416.349915 
	C240.144760,415.076813 233.528015,418.869995 230.204025,425.967834 
	C224.682724,437.757782 231.460388,452.889374 244.830368,457.472504 
	C254.285217,460.713593 263.476410,459.393402 270.909210,452.324066 
	C279.657990,444.003082 282.956909,433.585571 279.905823,421.782135 
	C276.496887,408.594482 266.626648,401.101929 255.145294,395.260651 
	C244.158173,389.670776 233.190140,384.043365 221.590408,378.108521 
M629.262390,431.265930 
	C629.418823,436.391724 631.170166,441.047302 633.663330,445.422241 
	C639.943542,456.442352 652.577637,461.632935 663.983215,457.979767 
	C675.161011,454.399536 682.517822,443.833557 681.699341,432.535675 
	C680.962524,422.365082 672.083923,414.733704 662.857300,416.340454 
	C658.129517,417.163757 654.373352,420.953735 653.522888,426.191772 
	C652.963196,429.638763 652.984314,433.092346 656.909546,435.132568 
	C657.301147,434.429932 657.563293,434.022888 657.764893,433.587708 
	C659.152832,430.591949 661.390442,429.254547 664.624756,430.355011 
	C667.630493,431.377686 668.633179,433.783173 668.119629,436.713348 
	C667.508667,440.199097 664.793152,441.005280 661.758728,441.047150 
	C654.987732,441.140686 649.750610,436.464111 648.830505,429.585632 
	C647.242859,417.716644 657.100891,408.172974 669.213074,410.069458 
	C672.923950,410.650513 676.528137,411.912201 680.720459,413.002472 
	C680.151367,398.853546 684.560669,386.545227 693.668152,375.868164 
	C678.862793,383.119415 664.107178,390.065186 649.978760,398.112213 
	C637.761169,405.070892 628.851929,414.934296 629.262390,431.265930 
M688.510193,461.738983 
	C698.970093,461.738983 709.429993,461.738983 719.889832,461.738983 
	C708.015747,457.376740 698.449036,450.076385 690.732178,439.432312 
	C688.847900,444.608063 687.435364,448.883148 684.427307,452.365082 
	C681.550842,455.694702 678.326904,458.657654 673.793823,461.737610 
	C679.198425,461.737610 683.357605,461.737610 688.510193,461.738983 
M194.296783,459.780640 
	C192.922516,460.242249 191.548264,460.703857 189.802063,461.290405 
	C204.967865,461.290405 219.675262,461.290405 235.453094,461.290405 
	C227.369781,455.485107 221.907211,449.000824 219.652512,439.192596 
	C212.622772,448.564117 204.845184,455.373505 194.296783,459.780640 
z"/>
<path fill="#000000" opacity="1.000000" stroke="none" 
	d="
M502.818481,616.205688 
	C497.801636,605.088318 484.889496,604.253662 477.310577,614.201782 
	C471.352356,622.022583 471.020294,631.488892 476.393707,640.343445 
	C481.760284,649.186707 491.980652,653.987305 501.982422,652.362610 
	C521.433228,649.203186 532.047729,628.184937 523.999878,608.620789 
	C522.864441,605.860657 521.411987,603.209961 519.899414,600.629883 
	C515.763000,593.574463 510.443665,589.512695 501.337494,590.129211 
	C488.729156,590.982910 476.019958,590.329102 463.354126,590.371948 
	C461.388885,590.378601 459.358154,590.004333 456.727173,591.246765 
	C461.154022,599.056885 457.737030,607.443848 458.343475,615.952087 
	C463.947083,600.786560 473.617035,593.074890 485.732544,594.268860 
	C484.239685,596.813599 481.509521,597.089783 479.450378,597.859009 
	C466.128815,602.835449 456.242279,621.534851 459.964539,635.609497 
	C462.586395,645.523438 465.167328,655.205750 471.018219,663.743225 
	C471.861328,664.973450 473.028931,666.265259 471.748932,667.761292 
	C470.648865,669.047058 469.086853,668.827942 467.553833,668.522766 
	C465.032990,668.020874 463.552460,666.337097 462.295288,664.277344 
	C459.837463,660.250427 458.609253,655.776062 456.912292,651.351074 
	C457.861115,657.332092 458.857239,663.306091 459.743988,669.296326 
	C460.475098,674.235413 461.222687,679.234497 460.166321,684.176086 
	C459.572968,686.951782 458.288574,689.960022 454.776215,689.774536 
	C451.672607,689.610596 450.539673,686.867920 449.809174,684.208801 
	C448.395020,679.061279 449.409760,673.958984 450.232758,668.863159 
	C451.131561,663.297668 452.048340,657.735107 452.653595,652.096497 
	C450.997223,656.444092 450.139832,661.056824 447.311401,664.889038 
	C445.988586,666.681335 444.575104,668.251343 442.328705,668.807373 
	C440.752167,669.197693 439.261261,668.851318 438.165314,667.722961 
	C436.756195,666.272156 437.879486,664.945251 438.738983,663.728882 
	C443.814087,656.546509 446.966766,648.590759 448.928467,640.026489 
	C453.495850,620.086487 446.112671,605.016174 427.434052,596.688110 
	C426.391693,596.223328 425.409363,595.623840 424.263702,595.015076 
	C431.685089,591.510437 442.042175,598.071411 450.469879,611.756226 
	C451.592560,607.941650 451.146423,604.548645 450.817200,601.304626 
	C450.446930,597.656799 453.061310,594.752991 453.022522,591.459229 
	C451.550507,589.959412 449.964966,590.394897 448.525238,590.391663 
	C433.526123,590.357544 418.526520,590.421448 403.527924,590.325256 
	C400.485626,590.305786 398.002045,591.083252 395.945221,593.338806 
	C387.535522,602.561157 382.451813,613.038818 383.286865,625.879578 
	C384.589233,645.906677 407.134552,658.664124 424.590759,649.202209 
	C436.365021,642.820129 440.709015,627.646912 434.098755,615.991516 
	C429.533264,607.941528 419.083984,604.937195 411.735474,609.561707 
	C404.761688,613.950378 404.777374,624.054749 411.807312,628.022888 
	C413.327179,627.351379 412.632843,625.642090 413.375153,624.584839 
	C415.099915,622.128418 417.453949,621.136292 420.311768,621.815979 
	C422.740051,622.393616 423.777405,624.416138 423.925690,626.695312 
	C424.109009,629.512878 422.649231,631.365295 419.949463,632.330200 
	C413.076965,634.786377 406.342529,632.004028 403.260132,625.365662 
	C399.153961,616.522461 402.952332,606.197083 411.956482,602.471680 
	C421.140106,598.671997 430.162567,599.576538 437.955566,605.654846 
	C445.915619,611.863525 448.871979,620.869507 447.745667,630.612793 
	C444.811981,655.990601 414.586121,667.553772 393.103577,651.718262 
	C385.545349,646.146790 380.560089,638.934937 379.524963,629.344849 
	C379.384491,628.043335 378.923126,626.776489 378.442780,624.806519 
	C365.361420,640.877319 349.377258,644.135742 332.035248,634.534729 
	C314.839661,625.014893 311.640625,609.396484 317.404968,591.703186 
	C315.586761,589.741821 313.636230,590.355469 311.905365,590.354492 
	C259.907593,590.326355 207.909805,590.342163 155.912003,590.348877 
	C153.270828,590.349243 151.009567,590.144531 149.385178,593.405273 
	C147.562012,597.065063 142.996536,595.609558 140.285019,590.762939 
	C138.916061,590.625549 138.802094,591.696838 138.374008,592.605530 
	C136.856735,595.826050 132.117508,596.541931 130.591095,593.463501 
	C129.152023,590.561218 127.210457,590.310242 124.597931,590.325806 
	C115.431976,590.380371 106.265442,590.365784 97.099258,590.337585 
	C94.704208,590.330200 92.935753,590.675110 91.221786,593.001953 
	C88.115150,597.219421 83.206215,595.265747 79.150597,594.839050 
	C75.486664,594.453552 75.807732,590.869507 75.785828,588.019653 
	C75.778145,587.019775 75.785080,586.019714 75.785751,585.019775 
	C75.792702,574.724609 78.109062,572.832886 88.326134,574.778259 
	C88.652275,574.840271 89.116943,574.782532 89.285019,574.979065 
	C95.506165,582.253174 103.846375,578.034790 111.210846,578.938660 
	C114.987190,579.402161 118.867325,579.039551 122.700340,579.015808 
	C125.797195,578.996643 128.736404,579.438049 130.857758,575.826843 
	C132.401810,573.198364 136.774200,574.552429 139.771698,578.088623 
	C144.155823,573.436279 144.991577,573.459351 150.693863,578.093689 
	C152.560135,579.610474 154.857117,579.014587 156.975266,579.015381 
	C224.805710,579.040588 292.636169,579.036255 360.466644,579.034668 
	C490.794464,579.031555 621.122314,579.031006 751.450134,579.003723 
	C754.956360,579.002991 758.175537,579.489441 761.135620,575.759827 
	C763.089722,573.297729 767.693604,573.507019 769.568115,577.989990 
	C774.288330,573.549866 775.975037,573.496765 780.361755,577.776184 
	C781.752502,579.132996 783.385010,579.003052 785.017273,579.008118 
	C794.350098,579.036987 803.683105,579.008179 813.015991,579.033203 
	C815.265259,579.039185 816.904358,578.432190 818.638672,576.630005 
	C822.244812,572.882874 827.175293,574.491516 831.379944,575.173340 
	C834.998047,575.760010 833.921448,579.642273 834.136230,582.348022 
	C834.201965,583.176147 834.244080,584.027527 834.129272,584.844727 
	C833.648132,588.269775 835.889709,593.320740 831.385071,594.535095 
	C826.840149,595.760315 821.094971,597.603027 817.618835,591.497742 
	C816.754578,589.979797 814.950195,590.373596 813.485291,590.369873 
	C803.652527,590.344788 793.819458,590.340454 783.986694,590.374573 
	C782.547852,590.379578 781.039917,590.085815 779.920715,591.609497 
	C776.143555,596.752197 773.587830,596.642456 770.034668,591.305664 
	C766.720886,596.581665 763.451965,596.858398 759.766663,591.922546 
	C758.210510,589.838318 756.221497,590.395142 754.340820,590.387512 
	C739.508362,590.327332 724.675537,590.350098 709.842834,590.347900 
	C672.677734,590.342407 635.512634,590.332520 598.347534,590.346191 
	C596.565430,590.346802 594.700256,589.966064 592.492554,591.243286 
	C598.654907,610.857971 594.420227,627.101196 574.835083,636.278259 
	C563.011108,641.818604 546.360168,642.828918 531.857117,625.405396 
	C530.553894,626.468323 530.664795,628.039490 530.436707,629.433044 
	C527.860596,645.177734 517.718262,654.050720 503.165283,657.963135 
	C488.944183,661.786316 477.049744,656.328003 467.973907,645.534912 
	C456.852966,632.309692 461.427002,610.440857 476.479614,602.939941 
	C483.537384,599.422852 491.060486,599.428894 498.253418,602.584229 
	C506.706024,606.292114 510.367371,615.729797 507.148621,624.349609 
	C504.677795,630.966492 498.400116,634.391235 491.552032,632.856506 
	C488.302216,632.128113 485.986420,630.369690 485.941101,626.828003 
	C485.904205,623.942078 487.655945,622.099182 490.495300,621.788452 
	C493.911102,621.414734 496.292877,622.875061 497.106873,626.427856 
	C497.243042,627.022095 497.593292,627.567322 497.853363,628.155029 
	C502.640808,625.631897 504.045685,622.308167 502.818481,616.205688 
M365.017181,607.342834 
	C362.142456,610.832397 358.387177,612.875549 354.019257,613.716553 
	C346.193298,615.223206 339.194000,609.910156 338.469177,602.051697 
	C338.231171,599.470886 339.091827,597.382935 341.476166,596.290344 
	C343.832886,595.210510 346.103241,595.756775 347.857941,597.641479 
	C349.716217,599.637390 349.309723,601.842712 348.220856,604.130127 
	C347.600891,605.432556 345.654114,605.880127 345.998199,608.111389 
	C349.428467,610.764099 353.024536,609.958374 356.433899,607.858215 
	C360.727081,605.213745 363.021790,601.284729 362.523956,596.138000 
	C362.158386,592.358765 360.368164,590.166077 356.038086,590.290649 
	C348.056519,590.520508 340.060028,590.491455 332.076965,590.287415 
	C328.587952,590.198181 326.534576,591.773743 324.779083,594.481873 
	C317.925720,605.054382 321.248596,621.162048 331.819580,628.264038 
	C349.152924,639.909424 372.332184,632.926086 379.968536,613.331482 
	C383.062286,605.393066 386.042908,597.561340 392.961548,590.315613 
	C385.578766,590.315613 379.475861,590.486816 373.388458,590.253296 
	C369.560669,590.106445 367.792816,591.228882 368.252563,595.331360 
	C368.708588,599.400513 367.884827,603.286926 365.017181,607.342834 
M578.411926,627.964783 
	C589.362488,618.726440 592.151123,605.338684 585.485596,594.530029 
	C583.767517,591.743896 581.718628,590.216980 578.232422,590.299561 
	C570.241699,590.488892 562.243042,590.312988 554.247925,590.356506 
	C549.201599,590.383972 547.429199,592.235474 547.356934,597.316711 
	C547.274170,603.132751 551.472351,608.518799 557.107361,609.626099 
	C559.739380,610.143311 562.315552,610.066406 564.232056,607.442688 
	C563.520264,606.587219 562.990540,605.965088 562.476501,605.330200 
	C560.551147,602.952209 560.298218,600.463074 562.312317,598.066589 
	C563.964050,596.101257 566.137756,595.405090 568.591492,596.474060 
	C571.387939,597.692200 571.673218,600.181213 571.479492,602.787048 
	C570.890930,610.705078 563.393860,615.783386 555.200073,613.849365 
	C546.227661,611.731567 541.358643,605.159912 541.524475,595.582520 
	C541.557983,593.649414 542.856384,590.640076 539.394226,590.508240 
	C532.528320,590.246643 525.645386,590.430969 517.322083,590.430969 
	C523.191040,597.269287 526.560425,603.627319 529.013977,610.619507 
	C536.217468,631.148254 558.551697,641.043396 578.411926,627.964783 
z"/>
<path fill="#000000" opacity="1.000000" stroke="none" 
	d="
M611.620117,380.644623 
	C640.699097,341.567200 652.735046,297.804138 649.396118,249.868073 
	C646.996826,215.422272 635.288086,184.011017 615.841614,155.492645 
	C610.826904,148.138519 610.708069,146.481384 615.499390,136.791656 
	C643.215027,171.768387 657.841736,210.930023 660.215881,254.790573 
	C663.959961,323.960846 632.189270,379.869476 603.677673,406.225739 
	C601.999390,404.215881 600.383789,402.150360 598.626465,400.213379 
	C596.886963,398.296021 597.905090,396.953522 599.303162,395.532806 
	C603.752258,391.011414 607.641846,386.022430 611.620117,380.644623 
z"/>
<path fill="#000000" opacity="1.000000" stroke="none" 
	d="
M405.448547,65.321991 
	C452.968140,53.595501 504.864746,61.548481 531.226135,75.139038 
	C519.786743,75.612778 509.624237,77.604118 499.513885,75.554955 
	C457.960236,67.132874 417.403595,69.384842 378.117401,86.226768 
	C373.228394,88.322662 368.441803,90.697189 363.755463,93.217278 
	C355.075165,97.885109 354.697723,97.931038 345.855682,90.979263 
	C364.348785,78.917084 384.000977,70.621506 405.448547,65.321991 
z"/>
<path fill="#000000" opacity="1.000000" stroke="none" 
	d="
M298.611298,397.530090 
	C289.518982,389.628326 283.729004,379.653778 277.831604,369.832703 
	C261.604797,342.809875 252.867279,313.300842 250.061096,282.062775 
	C249.269745,273.253662 254.905807,266.283325 259.540070,258.932800 
	C259.050659,315.356415 278.896393,363.351044 317.564667,404.065735 
	C310.612976,403.551971 304.696838,400.847534 298.611298,397.530090 
z"/>
<path fill="#000000" opacity="1.000000" stroke="none" 
	d="
M310.653656,118.651459 
	C312.336090,117.007660 313.739899,115.584778 315.189880,114.210571 
	C321.064362,108.642990 324.853882,108.714287 331.547089,114.744469 
	C328.375397,117.664986 325.210510,120.551376 322.075775,123.470139 
	C299.871338,144.144775 283.386230,168.740524 272.816711,197.105835 
	C269.874054,205.002945 262.939758,207.778717 257.589996,213.097534 
	C254.525772,197.931427 285.284729,143.488129 310.653656,118.651459 
z"/>
<path fill="#000000" opacity="1.000000" stroke="none" 
	d="
M693.708008,299.351257 
	C692.054382,298.611847 690.746155,298.008362 689.158447,297.275970 
	C693.901917,295.369659 705.316711,300.444031 711.314880,306.759796 
	C718.917480,314.765076 721.528015,325.581085 717.070740,335.049469 
	C716.323853,317.696228 709.161316,305.824036 693.708008,299.351257 
z"/>
<path fill="#000000" opacity="1.000000" stroke="none" 
	d="
M190.932892,322.505554 
	C194.677734,307.581268 208.219131,295.910950 221.020279,296.860077 
	C213.377335,300.292236 206.015625,304.053711 200.802475,310.904083 
	C195.629807,317.701233 193.549240,325.520203 192.760910,333.966400 
	C190.532379,330.419403 190.677307,326.678864 190.932892,322.505554 
z"/>
</svg>