<svg version="1.1" id="Layer_1" xmlns="http://www.w3.org/2000/svg" xmlns:xlink="http://www.w3.org/1999/xlink" x="0px" y="0px"
	 width="100%" viewBox="0 0 512 512" enable-background="new 0 0 512 512" xml:space="preserve">
<path fill="#000000" opacity="1.000000" stroke="none" 
	d="
M442.080017,311.865753 
	C437.438202,328.511047 433.703857,344.863831 435.296600,361.938538 
	C436.463409,374.447784 440.178162,386.362091 443.837494,398.276794 
	C447.554138,410.378143 450.510010,422.607422 452.084076,435.205902 
	C456.130432,467.591522 428.426147,492.522797 395.550629,485.971558 
	C386.687958,484.205475 378.285034,481.094604 369.852142,477.980774 
	C363.456116,475.619080 356.985687,473.430481 350.462250,471.448273 
	C337.805206,467.602264 325.422546,469.837433 313.174347,473.591797 
	C304.901062,476.127777 296.571777,478.516754 288.414703,481.389313 
	C266.589874,489.074982 245.003494,488.047668 223.402512,480.453461 
	C215.558517,477.695770 207.479279,475.614319 199.586212,472.987457 
	C184.947067,468.115479 170.570953,468.751953 156.078827,473.886078 
	C144.175659,478.103027 132.608765,483.315674 120.113159,485.854584 
	C93.779747,491.205170 70.426178,477.679016 64.124947,453.226166 
	C61.206886,441.902161 62.907406,430.665466 65.268387,419.611389 
	C68.425850,404.828186 71.914261,390.089386 75.980476,375.532623 
	C82.445145,352.389587 80.460480,329.828247 73.159813,307.295593 
	C68.907066,294.169983 65.344299,280.863037 63.549370,267.084808 
	C61.703079,252.912338 63.985607,239.210114 67.099388,225.568649 
	C69.836922,213.575531 72.884399,201.646225 76.091606,189.768814 
	C81.665154,169.128006 81.096809,148.717453 74.967590,128.266815 
	C70.294342,112.674133 65.332939,97.178734 63.064415,80.909935 
	C59.658398,56.483593 73.346413,34.381733 96.508705,28.278629 
	C107.373558,25.415821 118.046898,27.120462 128.461258,30.314837 
	C137.680054,33.142498 146.757477,36.485397 155.754578,39.969379 
	C171.039505,45.888195 186.244308,45.524509 201.642273,40.472420 
	C212.232346,36.997807 222.937790,33.871235 233.614319,30.664507 
	C250.372635,25.631100 267.076355,26.198112 283.713196,31.314699 
	C292.141937,33.906921 300.762787,36.000462 308.966522,39.173386 
	C329.311493,47.042110 348.968323,45.124699 368.594147,36.644436 
	C378.821869,32.225056 389.365326,28.791275 400.595398,27.398144 
	C431.572205,23.555353 456.329712,48.920670 451.965393,79.875999 
	C450.120392,92.962334 447.413208,105.812080 442.979401,118.168152 
	C433.046417,145.849243 433.006683,173.388428 441.653442,201.391800 
	C446.255737,216.296860 449.793793,231.524353 451.450287,247.160339 
	C453.113892,262.863312 450.265411,277.975189 446.786041,293.076111 
	C445.367371,299.233307 443.722565,305.338379 442.080017,311.865753 
M433.047485,258.485718 
	C433.532867,240.907440 429.187134,224.079773 424.052948,207.586761 
	C414.015503,175.342392 413.730927,143.573883 425.472046,111.687294 
	C429.428131,100.943436 431.756134,89.680794 433.376465,78.253136 
	C436.543152,55.919678 418.508087,43.005013 402.052246,45.982082 
	C391.263672,47.933876 381.236938,51.763023 371.136810,55.570522 
	C354.195099,61.957092 337.068573,65.893845 318.922668,61.250408 
	C308.433716,58.566345 298.011017,55.613132 287.862366,51.905586 
	C267.616852,44.509411 247.555283,44.302372 227.339279,51.869392 
	C221.426178,54.082718 215.196686,55.445583 209.266113,57.618389 
	C186.686447,65.890968 164.593063,64.358429 142.620712,55.182320 
	C132.657013,51.021271 122.546875,47.267685 111.642708,45.879894 
	C98.084579,44.154331 85.606560,52.407352 82.226929,65.697548 
	C80.431480,72.758018 81.776810,79.603394 82.920433,86.454117 
	C85.200584,100.113068 90.099716,113.089523 93.779663,126.384094 
	C99.193085,145.941254 100.849152,165.621506 96.141510,185.528976 
	C93.158012,198.145462 89.875191,210.691345 86.706718,223.263870 
	C82.492592,239.985596 79.676292,256.763092 83.385941,274.037384 
	C85.835564,285.444244 89.382004,296.532745 92.561607,307.729950 
	C96.390640,321.214172 99.579880,334.859375 98.999138,348.961609 
	C98.484917,361.448883 95.822083,373.653595 92.706955,385.760559 
	C88.441971,402.336426 83.605118,418.768616 81.578590,435.877808 
	C80.033920,448.918915 85.492401,460.600250 96.524094,465.903107 
	C103.531891,469.271698 110.769897,468.595734 118.017860,467.100525 
	C130.318130,464.563080 141.593582,458.953278 153.464493,455.110352 
	C168.420670,450.268677 183.432129,449.101288 198.648102,453.564331 
	C210.303085,456.982910 221.963562,460.393707 233.542770,464.057129 
	C249.091232,468.976196 264.586182,469.341339 280.175690,464.358490 
	C288.735931,461.622406 297.325806,458.976807 305.925232,456.365814 
	C319.375153,452.282074 332.897369,449.013275 347.159149,451.642059 
	C356.874390,453.432831 366.139221,456.604156 375.344666,460.041748 
	C384.533783,463.473236 393.612885,467.053772 403.565643,468.085358 
	C417.469788,469.526489 429.408051,461.533295 432.824005,448.094177 
	C434.577209,441.196747 433.192780,434.505127 432.133820,427.812531 
	C430.124634,415.114288 425.574615,403.066223 422.141968,390.731628 
	C418.426849,377.382202 415.408234,363.880188 416.042999,349.944092 
	C416.596344,337.794678 419.274689,325.941345 422.171326,314.132080 
	C426.598785,296.081757 432.793304,278.364105 433.047485,258.485718 
z"/>
<path fill="#000000" opacity="1.000000" stroke="none" 
	d="
M269.000000,79.747887 
	C310.330414,79.740898 351.160797,79.731850 391.991211,79.730766 
	C399.313873,79.730568 399.331818,79.745743 399.331665,86.752335 
	C399.329498,200.077545 399.324005,313.402771 399.312683,426.727966 
	C399.311951,434.192017 399.287231,434.216949 391.955078,434.209442 
	C302.461578,434.117981 212.968094,434.020508 123.474602,433.917969 
	C115.695770,433.909058 115.688881,433.887360 115.688538,426.256165 
	C115.683502,313.430908 115.679787,200.605652 115.678268,87.780403 
	C115.678162,79.779114 115.687309,79.762657 123.511047,79.761253 
	C171.840698,79.752563 220.170349,79.751892 269.000000,79.747887 
M159.285110,353.696869 
	C169.341812,347.186981 180.608948,343.442169 191.958771,340.212006 
	C204.593399,336.616211 213.075333,330.034424 213.341721,315.876312 
	C213.363541,314.716675 213.559280,313.561371 213.634262,312.401459 
	C213.755615,310.524231 213.394943,308.814301 212.242737,307.224976 
	C204.533997,296.591980 199.441483,284.669830 195.202759,272.337799 
	C194.657715,270.752075 194.059525,269.294250 192.717239,268.119232 
	C183.183350,259.773468 179.620438,248.943253 180.821442,236.698486 
	C181.724335,227.493011 180.386444,218.478104 180.015350,209.376083 
	C179.602753,199.256516 178.631256,189.130615 181.338058,179.094208 
	C191.188354,142.570923 234.283844,126.676949 265.856873,138.560791 
	C271.657990,140.744278 276.823608,141.367783 282.955536,140.907974 
	C302.995117,139.405289 322.228210,152.686646 331.308777,172.536392 
	C337.013611,185.006882 335.523651,197.853455 334.877747,210.794052 
	C334.465546,219.052689 333.200745,227.246780 334.145721,235.615173 
	C335.567474,248.205734 332.222839,259.411041 322.490692,268.119873 
	C320.886169,269.555695 320.201202,271.352020 319.548157,273.226593 
	C315.368347,285.224579 310.373108,296.825043 302.822510,307.149261 
	C301.417847,309.069946 301.097870,311.150970 301.412811,313.301178 
	C302.037628,317.566620 302.738617,321.834137 303.704102,326.032715 
	C304.648102,330.137970 307.252930,332.940369 311.002014,335.035919 
	C318.065582,338.984100 325.860474,340.854187 333.381134,343.506775 
	C346.531311,348.144867 359.203339,353.315277 367.473480,365.667786 
	C374.045288,375.483704 378.174866,386.160004 380.662140,398.530304 
	C380.662140,300.108856 380.663147,202.626129 380.659973,105.143394 
	C380.659760,98.430130 380.645142,98.424316 373.592285,98.424469 
	C297.438660,98.426140 221.285049,98.429092 145.131439,98.437004 
	C143.299286,98.437195 141.467102,98.528061 139.635010,98.525482 
	C135.720261,98.519974 134.163330,100.193115 134.237350,104.340324 
	C134.472244,117.500488 134.316727,130.667572 134.316605,143.831985 
	C134.315796,228.425186 134.316193,313.018402 134.316193,398.260681 
	C138.143600,380.674591 144.631912,365.275787 159.285110,353.696869 
M179.499924,415.639374 
	C226.151108,415.641388 272.802277,415.645203 319.453461,415.644379 
	C331.949310,415.644165 344.449951,415.427002 356.938538,415.724640 
	C361.726013,415.838745 363.091217,414.087769 362.790436,409.623566 
	C362.566315,406.296570 362.356598,402.996582 361.691864,399.726379 
	C358.166962,382.385803 350.450867,368.481964 332.173676,362.888153 
	C324.699127,360.600586 317.261566,358.115051 309.995667,355.242737 
	C301.385742,351.839081 293.312408,347.479218 288.892517,338.651337 
	C283.517731,327.916382 282.521881,316.373260 282.783173,304.623657 
	C282.820953,302.926147 283.533447,301.345215 284.631287,300.060333 
	C294.157867,288.910583 299.307617,275.594147 303.567261,261.845795 
	C304.332397,259.376129 305.346832,257.107758 307.613159,255.760025 
	C315.437134,251.107254 316.605286,243.797348 315.358643,235.778030 
	C314.809875,232.248306 315.049530,228.865662 315.222504,225.372559 
	C315.814880,213.411621 317.358551,201.482788 316.780731,189.478806 
	C316.039551,174.080750 294.710907,151.887939 276.504059,161.473526 
	C273.569580,163.018478 270.540710,162.321777 267.975098,160.505051 
	C257.621948,153.173798 246.219574,152.195419 234.108368,154.295853 
	C216.297760,157.384735 202.638641,169.340515 198.892731,186.165680 
	C197.183029,193.844849 198.385330,201.742493 198.695084,209.553970 
	C199.062469,218.819046 200.881912,228.001511 199.475937,237.381622 
	C198.377106,244.712616 200.154465,251.306396 207.100677,255.541855 
	C209.647446,257.094757 210.764923,259.613251 211.622131,262.446716 
	C215.107224,273.966187 218.941788,285.618530 226.678741,294.868042 
	C232.706589,302.074341 232.844070,309.492401 231.857162,317.706421 
	C231.698532,319.026733 231.489471,320.341003 231.327271,321.660919 
	C229.378555,337.519562 221.794998,349.108673 206.302612,354.712463 
	C203.799652,355.617798 201.303909,356.543152 198.799133,357.443359 
	C191.439331,360.088440 184.047348,362.647308 176.724426,365.390656 
	C170.941605,367.557007 166.405029,371.372650 162.905502,376.465973 
	C155.811279,386.791138 152.448975,398.230194 152.209442,410.723907 
	C152.139755,414.358124 153.215912,415.820557 157.009109,415.701416 
	C164.166306,415.476654 171.335632,415.637939 179.499924,415.639374 
z"/>
</svg>