<svg version="1.1" id="Layer_1" xmlns="http://www.w3.org/2000/svg" xmlns:xlink="http://www.w3.org/1999/xlink" x="0px" y="0px"
	 width="100%" viewBox="0 0 688 688" enable-background="new 0 0 688 688" xml:space="preserve">
<path fill="#000000" opacity="1.000000" stroke="none" 
	d="
M588.399963,689.000000 
	C590.803223,681.207886 596.029419,675.031921 601.480591,668.936218 
	C600.358459,676.373596 594.134277,681.321106 592.065735,688.643311 
	C590.933289,689.000000 589.866638,689.000000 588.399963,689.000000 
z"/>
<path fill="#000000" opacity="1.000000" stroke="none" 
	d="
M320.251129,443.571808 
	C305.309143,391.824066 330.046265,337.971039 378.144592,316.857605 
	C437.976074,290.593750 506.714966,324.159973 522.865356,387.526886 
	C538.067322,447.172272 497.310577,508.297943 436.375031,517.079529 
	C412.497406,520.520630 389.968048,516.239380 368.942902,504.373230 
	C362.503906,500.739197 360.544800,495.583649 363.376312,490.486053 
	C366.225494,485.356506 371.674774,484.443146 378.151642,488.009491 
	C412.637024,506.997864 452.658203,501.839722 481.092896,474.742035 
	C512.507324,444.804749 516.012817,393.316406 488.532440,359.709045 
	C465.725311,331.816864 435.923767,321.210968 401.137939,329.341370 
	C364.691650,337.859863 343.147797,362.317200 335.698486,398.870331 
	C331.973785,417.147095 335.772614,434.573364 343.351898,451.351929 
	C346.246613,457.760071 344.658997,462.904114 339.365814,465.239410 
	C334.704834,467.295837 329.924286,465.579987 327.164764,460.577454 
	C324.261658,455.314667 322.119019,449.709381 320.251129,443.571808 
z"/>
<path fill="#000000" opacity="1.000000" stroke="none" 
	d="
M176.654892,403.875732 
	C180.320114,368.668030 196.699600,341.448730 226.530472,323.431030 
	C259.852539,303.304626 294.568542,302.750702 329.582245,319.649323 
	C331.076630,320.370514 332.551117,321.192505 333.888794,322.167908 
	C338.512543,325.539276 339.706848,330.517517 337.034149,334.842499 
	C334.320099,339.234344 329.383270,340.705811 324.394958,338.163422 
	C317.698914,334.750702 310.898346,331.724182 303.622131,329.722504 
	C263.326385,318.637238 220.171097,338.763763 202.859589,376.793915 
	C179.029327,429.144501 211.263168,489.895996 268.081909,498.373779 
	C318.722382,505.929718 361.315826,469.691650 366.865997,423.409668 
	C368.876740,406.642517 365.901245,390.962067 359.073608,375.801056 
	C357.484924,372.273376 356.712646,368.762329 358.617767,365.275208 
	C360.229736,362.324707 362.949219,360.693054 366.412872,360.678345 
	C370.473206,360.661102 373.365448,362.625244 375.245453,366.158997 
	C380.467255,375.974182 383.565887,386.520172 385.107391,397.437317 
	C391.702026,444.140961 368.367676,487.754333 326.136444,508.080444 
	C264.094604,537.941467 189.243469,499.167053 177.693222,431.175446 
	C176.181763,422.278076 175.488876,413.340515 176.654892,403.875732 
z"/>
<path fill="#000000" opacity="1.000000" stroke="none" 
	d="
M291.318939,248.460266 
	C280.789001,226.916794 290.338837,207.148834 304.179291,198.438599 
	C317.220764,190.231201 334.821136,190.682632 346.824646,200.226624 
	C350.147247,202.868408 351.913300,202.674332 355.175232,200.302216 
	C367.911835,191.040039 381.722961,189.857910 395.590576,197.290405 
	C409.132568,204.548355 415.487396,216.538132 415.200073,231.817001 
	C415.070038,238.731003 413.032227,245.385635 409.247070,251.173279 
	C394.799957,273.263275 375.321014,290.271210 353.880676,305.236694 
	C352.093506,306.484192 350.323669,306.822388 348.360779,305.432861 
	C326.214294,289.755280 305.745422,272.401367 291.318939,248.460266 
z"/>
<path fill="#000000" opacity="1.000000" stroke="none" 
	d="
M620.722412,671.332397 
	C620.773254,668.142517 620.773254,665.365845 620.773254,662.275452 
	C624.611084,665.484680 625.337341,673.289917 622.499878,677.045898 
	C619.993958,680.362976 616.410400,680.748535 611.684875,677.867676 
	C615.133118,676.199829 620.120239,676.916077 620.722412,671.332397 
z"/>
<path fill="#000000" opacity="1.000000" stroke="none" 
	d="
M679.543335,660.666687 
	C682.980347,660.297974 682.100708,662.473022 681.771790,664.077026 
	C680.945374,668.106384 680.037476,672.123901 678.995911,676.102600 
	C678.154541,679.316284 677.275513,679.597839 672.570190,678.363770 
	C678.128723,673.692505 676.290100,666.466797 679.543335,660.666687 
z"/>
<path fill="#000000" opacity="1.000000" stroke="none" 
	d="
M631.839966,672.720581 
	C633.195557,668.461182 633.468140,664.226685 635.922546,660.178833 
	C638.039673,662.328674 637.397034,664.525452 637.038452,666.434021 
	C636.457092,669.528564 635.427673,672.536011 634.686279,675.604065 
	C633.724670,679.583984 631.320862,679.975464 627.677979,678.517273 
	C628.664490,676.216614 631.848145,675.792542 631.839966,672.720581 
z"/>
<path fill="#000000" opacity="1.000000" stroke="none" 
	d="
M605.759521,659.359863 
	C606.008179,657.397583 605.138550,655.542053 607.074097,654.520508 
	C608.718140,655.207458 608.446167,656.652100 608.441284,657.916748 
	C608.418762,663.694092 608.353821,669.471375 608.288330,675.248474 
	C608.262390,677.540649 608.130310,679.765686 604.380798,678.651306 
	C606.748291,672.473938 605.187012,666.086914 605.759521,659.359863 
z"/>
<path fill="#000000" opacity="1.000000" stroke="none" 
	d="
M565.689941,679.380432 
	C563.498230,679.072266 564.294983,677.790405 564.648071,676.800110 
	C566.242188,672.329346 568.096741,668.015869 573.186157,664.575623 
	C572.770386,671.257202 568.462708,674.808655 565.689941,679.380432 
z"/>
<path fill="#000000" opacity="1.000000" stroke="none" 
	d="
M650.805847,668.647339 
	C656.597412,669.084534 655.609070,665.055542 655.348999,660.710510 
	C658.214661,663.937866 658.762146,666.597900 658.053528,669.303772 
	C657.279236,672.260437 654.503479,671.142517 652.536194,671.216370 
	C650.563904,671.290344 649.094604,672.168396 647.771057,673.474854 
	C645.303528,669.457214 645.380920,669.331482 650.805847,668.647339 
z"/>
<path fill="#000000" opacity="1.000000" stroke="none" 
	d="
M669.320312,668.267822 
	C669.547180,671.207336 668.804749,673.571045 668.159180,675.946838 
	C667.285767,679.161377 665.445496,680.157898 661.845154,678.290100 
	C666.339478,674.687134 665.487610,669.084473 667.626526,664.683350 
	C669.849609,665.089722 669.053345,666.717834 669.320312,668.267822 
z"/>
<path fill="#000000" opacity="1.000000" stroke="none" 
	d="
M614.617554,661.119995 
	C615.489746,661.564819 615.990417,661.965393 616.491089,662.366028 
	C613.406799,665.332275 614.313904,669.588440 613.514160,673.635193 
	C609.312012,669.411865 609.886780,663.795410 614.617554,661.119995 
z"/>
<path fill="#000000" opacity="1.000000" stroke="none" 
	d="
M640.471436,675.068237 
	C640.973694,669.981750 640.139404,665.204712 641.100830,660.731567 
	C642.569824,660.515015 643.045288,660.953064 643.060913,661.685547 
	C643.163635,666.483704 643.237854,671.282898 643.270203,676.082031 
	C643.277832,677.218872 643.319336,678.486511 641.929443,678.993896 
	C641.113831,679.291565 640.170959,679.300598 639.634644,678.596191 
	C638.697388,677.364990 640.072083,676.516663 640.471436,675.068237 
z"/>
<path fill="#000000" opacity="1.000000" stroke="none" 
	d="
M649.333923,676.815552 
	C653.143982,677.475952 654.216309,673.098145 657.515869,673.022583 
	C658.881897,675.859924 657.352417,677.542053 655.320740,678.836853 
	C652.917664,680.368164 650.149109,680.815735 647.819824,679.018738 
	C645.943481,677.571167 647.406128,676.962463 649.333923,676.815552 
z"/>
<path fill="#000000" opacity="1.000000" stroke="none" 
	d="
M598.140259,665.142517 
	C596.712280,668.330688 596.998962,672.062500 593.052429,674.178894 
	C593.638611,668.918335 594.113159,664.289734 597.830017,660.678162 
	C599.955872,662.105042 598.425964,663.483337 598.140259,665.142517 
z"/>
<path fill="#000000" opacity="1.000000" stroke="none" 
	d="
M662.232178,671.622925 
	C661.019958,667.823486 660.103455,664.235596 660.673584,660.305298 
	C663.923218,662.683228 664.748901,668.609863 662.232178,671.622925 
z"/>
<path fill="#000000" opacity="1.000000" stroke="none" 
	d="
M586.393250,668.327820 
	C587.428772,666.366699 587.429260,664.130249 589.955200,663.184021 
	C591.983704,666.644653 589.841797,669.280396 587.676575,670.904724 
	C586.083374,672.099854 586.016724,669.952698 586.393250,668.327820 
z"/>
<path fill="#000000" opacity="1.000000" stroke="none" 
	d="
M628.705322,663.600586 
	C629.228577,666.395630 630.363892,668.827087 628.963684,672.159668 
	C626.226807,668.108093 626.597534,664.308777 625.764465,660.650452 
	C628.403503,660.459717 628.095825,662.174866 628.705322,663.600586 
z"/>
<path fill="#000000" opacity="1.000000" stroke="none" 
	d="
M673.657898,664.706848 
	C674.188049,667.122192 675.021301,669.178162 673.064209,671.574097 
	C671.196655,667.955994 670.829102,664.480042 670.933533,660.574097 
	C673.497620,661.013245 673.099365,662.941650 673.657898,664.706848 
z"/>
<path fill="#000000" opacity="1.000000" stroke="none" 
	d="
M651.446655,662.878723 
	C650.056763,664.329529 648.973694,665.888977 646.925354,665.903564 
	C645.241455,664.276550 646.008667,662.795471 647.346985,661.731506 
	C648.833862,660.549438 650.412537,660.684875 651.446655,662.878723 
z"/>
<path fill="#000000" opacity="1.000000" stroke="none" 
	d="
M578.759888,670.949219 
	C577.604553,673.286316 576.229309,674.994202 574.032654,676.241760 
	C573.977295,671.102539 575.485413,669.464050 578.759888,670.949219 
z"/>
</svg>